<svg id="visual" viewBox="0 0 1920 1080" width="1920" height="1080" xmlns="http://www.w3.org/2000/svg" xmlns:xlink="http://www.w3.org/1999/xlink" version="1.1"><rect x="0" y="0" width="1920" height="1080" fill="#5eb6f9"></rect><defs><linearGradient id="grad1_0" x1="43.8%" y1="0%" x2="100%" y2="100%"><stop offset="14.444444444444446%" stop-color="#5eb6f9" stop-opacity="1"></stop><stop offset="85.55555555555554%" stop-color="#5eb6f9" stop-opacity="1"></stop></linearGradient></defs><defs><linearGradient id="grad2_0" x1="0%" y1="0%" x2="56.3%" y2="100%"><stop offset="14.444444444444446%" stop-color="#5eb6f9" stop-opacity="1"></stop><stop offset="85.55555555555554%" stop-color="#5eb6f9" stop-opacity="1"></stop></linearGradient></defs><g transform="translate(1920, 0)"><path d="M0 702C-65 666.9 -130 631.8 -199.6 614.4C-269.2 596.9 -343.4 597.1 -412.6 567.9C-481.9 538.8 -546.1 480.3 -563.1 409.1C-580 337.9 -549.7 253.9 -564.9 183.6C-580.2 113.2 -641.1 56.6 -702 0L0 0Z" fill="#ffcc80"></path></g><g transform="translate(0, 1080)"><path d="M0 -702C82.9 -704.1 165.8 -706.1 213.5 -657.2C261.3 -608.3 273.9 -508.4 341.5 -470C409.1 -431.7 531.7 -455 567.9 -412.6C604.2 -370.3 554.1 -262.3 562.1 -182.6C570 -102.9 636 -51.5 702 0L0 0Z" fill="#ffcc80"></path></g></svg>