<svg id="visual" viewBox="0 0 1920 1080" width="1920" height="1080" xmlns="http://www.w3.org/2000/svg" xmlns:xlink="http://www.w3.org/1999/xlink" version="1.1"><rect x="0" y="0" width="1920" height="1080" fill="#002233"></rect><path d="M0 972L26.7 968.3C53.3 964.7 106.7 957.3 160 897.3C213.3 837.3 266.7 724.7 320 712.7C373.3 700.7 426.7 789.3 480 788.5C533.3 787.7 586.7 697.3 640 645.8C693.3 594.3 746.7 581.7 800 641.3C853.3 701 906.7 833 960 894.7C1013.3 956.3 1066.7 947.7 1120 906C1173.3 864.3 1226.7 789.7 1280 746.2C1333.3 702.7 1386.7 690.3 1440 712.7C1493.3 735 1546.7 792 1600 789.2C1653.3 786.3 1706.7 723.7 1760 680.8C1813.3 638 1866.7 615 1893.3 603.5L1920 592L1920 1081L1893.3 1081C1866.7 1081 1813.3 1081 1760 1081C1706.7 1081 1653.3 1081 1600 1081C1546.7 1081 1493.3 1081 1440 1081C1386.7 1081 1333.3 1081 1280 1081C1226.7 1081 1173.3 1081 1120 1081C1066.7 1081 1013.3 1081 960 1081C906.7 1081 853.3 1081 800 1081C746.7 1081 693.3 1081 640 1081C586.7 1081 533.3 1081 480 1081C426.7 1081 373.3 1081 320 1081C266.7 1081 213.3 1081 160 1081C106.7 1081 53.3 1081 26.7 1081L0 1081Z" fill="#0066FF" stroke-linecap="round" stroke-linejoin="miter"></path></svg>